<svg width="196" height="48" viewBox="0 0 196 48" fill="none" xmlns="http://www.w3.org/2000/svg">
<path fill-rule="evenodd" clip-rule="evenodd" d="M12 1.85455C12 2.79411 11.2325 3.6 10.2595 3.6H3.6V10.2857C3.6 11.2325 2.79411 12 1.8 12C0.805887 12 0 11.2325 0 10.2857V1.85455V1.71429C0 1.16814 0.268165 0.681643 0.685931 0.367713C0.977057 0.135514 1.34149 0 1.74046 0H1.8H10.2595C11.2325 0 12 0.805888 12 1.85455ZM48.0016 10.2857C48.0016 11.2325 47.1957 12 46.2016 12C45.2075 12 44.4016 11.2325 44.4016 10.2857V3.6H37.7491C36.7761 3.6 36.0086 2.79411 36.0086 1.85455C36.0086 0.805888 36.7761 0 37.7491 0H46.2016H46.2682C46.7219 0 47.1309 0.175226 47.4382 0.468584C47.7764 0.773165 47.9906 1.20128 48.0012 1.67711C48.0061 1.73539 48.0086 1.79457 48.0086 1.85455C48.0086 1.90675 48.0063 1.95854 48.0016 2.0098V10.2857ZM10.2595 44.4C11.2325 44.4 12 45.2059 12 46.1455C12 47.1941 11.2325 48 10.2595 48H1.8H1.74046C1.34148 48 0.977054 47.8645 0.685927 47.6323C0.268163 47.3184 0 46.8319 0 46.2857V46.1455V37.7143C0 36.7675 0.805887 36 1.8 36C2.79411 36 3.6 36.7675 3.6 37.7143V44.4H10.2595ZM1.8 18C2.79411 18 3.6 18.7675 3.6 19.7143V28.2857C3.6 29.2325 2.79411 30 1.8 30C0.805887 30 0 29.2325 0 28.2857V19.7143C0 18.7675 0.805887 18 1.8 18ZM48 19.7143C48 18.7675 47.1941 18 46.2 18C45.2059 18 44.4 18.7675 44.4 19.7143V28.2857C44.4 29.2325 45.2059 30 46.2 30C47.1941 30 48 29.2325 48 28.2857V19.7143ZM30 46.2C30 47.1941 29.1941 48 28.2 48H18.6C17.6059 48 16.8 47.1941 16.8 46.2C16.8 45.2059 17.6059 44.4 18.6 44.4H28.2C29.1941 44.4 30 45.2059 30 46.2ZM28.2 3.6C29.1941 3.6 30 2.79411 30 1.8C30 0.805887 29.1941 0 28.2 0H18.6C17.6059 0 16.8 0.805887 16.8 1.8C16.8 2.79411 17.6059 3.6 18.6 3.6H28.2ZM38.4 45.4993C38.4 46.8804 39.4745 48 40.8 48C42.1255 48 43.2 46.8804 43.2 45.4993V43.2H45.4993C46.8804 43.2 48 42.1255 48 40.8C48 39.4745 46.8804 38.4 45.4993 38.4H43.2V36.1007C43.2 34.7196 42.1255 33.6 40.8 33.6C39.4745 33.6 38.4 34.7196 38.4 36.1007V38.4H36.1007C34.7196 38.4 33.6 39.4745 33.6 40.8C33.6 42.1255 34.7196 43.2 36.1007 43.2H38.4V45.4993Z" fill="#161616"/>
<path fill-rule="evenodd" clip-rule="evenodd" d="M18.0537 17.9196C18.1119 18.0318 18.1712 18.1501 18.2317 18.2745C18.9556 19.7646 19.5561 21.3991 20.8737 25.2925L20.8845 25.3246C22.2287 29.2965 22.8339 30.9562 23.6497 32.6936C24.2179 33.9039 24.7845 34.8633 25.4118 35.6065C26.3547 36.7237 27.4853 37.4204 28.8802 37.4204C30.6959 37.4204 32.2413 36.6473 33.3194 35.2565C34.1657 34.1646 34.6797 32.7691 34.9583 31.0909C35.3746 28.5834 35.2708 25.4339 34.7866 21.6083C34.2396 17.2861 33.3456 13.7805 32.0718 11.0722C31.4581 9.76748 29.9029 9.20724 28.5982 9.8209C27.2934 10.4346 26.7332 11.9897 27.3468 13.2945C28.3587 15.4458 29.1228 18.4421 29.6065 22.2639C30.0323 25.6277 30.1217 28.3424 29.8074 30.2358C29.6657 31.0891 29.453 31.6893 29.2272 32.0107C28.9792 31.6598 28.69 31.143 28.3761 30.4744C27.6771 28.9858 27.1042 27.4148 25.8304 23.6508L25.8196 23.6187C24.4226 19.4906 23.7868 17.7601 22.9282 15.9928C22.3189 14.7386 21.7059 13.7653 21.0058 13.0358C19.9155 11.8997 18.5485 11.3059 17.0116 11.6457C15.3849 12.0053 14.2232 13.1688 13.5322 14.826C13.0067 16.0862 12.7207 17.6926 12.6253 19.6871C12.4505 23.3411 12.9171 28.5019 14.0122 35.2291C14.2439 36.6522 15.5854 37.6181 17.0085 37.3864C18.4316 37.1548 19.3975 35.8133 19.1658 34.3902C18.1243 27.9918 17.6869 23.1541 17.8408 19.9366C17.8788 19.1424 17.9525 18.4677 18.0537 17.9196Z" fill="#00A1B7"/>
<path fill-rule="evenodd" clip-rule="evenodd" d="M125.814 12.9454V17.073C125.814 18.7241 125.129 19.5496 123.76 19.5496H121.686V23.2544H125.411V33.5634C125.398 37.6843 127.317 39.7448 131.17 39.7448C132.284 39.7448 133.251 39.6105 134.069 39.3421V35.6373L133.767 35.7178C133.579 35.7984 133.314 35.8722 132.972 35.9393C132.63 36.0064 132.304 36.04 131.995 36.04C131.284 36.04 130.693 35.8051 130.224 35.3353C129.754 34.8655 129.519 34.2614 129.519 33.5231V23.2544H133.647V19.5496H129.519V12.9454H125.814ZM90.6752 39.3421L94.8029 39.3421V26.5565C94.8029 24.4625 94.031 22.7007 92.4874 21.2711C90.9437 19.8416 88.9637 19.1268 86.5475 19.1268C85.5811 19.1268 84.6448 19.2576 83.7387 19.5194C82.8326 19.7811 82.1044 20.0798 81.5541 20.4154C81.0037 20.751 80.4836 21.1302 79.9936 21.553C79.5037 21.9758 79.1882 22.2712 79.0473 22.4389C78.9063 22.6067 78.7956 22.7443 78.715 22.8517L81.393 25.5296L81.9366 24.8249C82.2588 24.3819 82.8461 23.9423 83.6985 23.5061C84.5508 23.0698 85.5005 22.8517 86.5476 22.8517C87.7557 22.8517 88.7456 23.2074 89.5175 23.9188C90.2893 24.6303 90.6752 25.5095 90.6752 26.5565L83.4468 27.8048C81.6615 28.1002 80.2554 28.7982 79.2285 29.8989C78.2016 30.9996 77.6882 32.3621 77.6882 33.9863C77.6882 35.4897 78.3526 36.8253 79.6815 37.9931C81.0104 39.1609 82.6816 39.7448 84.6951 39.7448C85.3797 39.7448 86.0576 39.6576 86.7288 39.4831C87.3999 39.3086 87.957 39.1106 88.4 38.8891C88.8429 38.6676 89.2557 38.4193 89.6383 38.1441C90.0208 37.8689 90.2759 37.6709 90.4034 37.5501C90.5309 37.4293 90.6215 37.3421 90.6752 37.2884V39.3421ZM60.31 22.2075C58.263 24.2612 57.2394 26.674 57.2394 29.4459C57.2394 32.2178 58.2629 34.6272 60.31 36.6743C62.357 38.7213 64.7698 39.7448 67.5484 39.7448C68.5014 39.7448 69.4477 39.5938 70.3873 39.2918C71.327 38.9898 72.0921 38.6609 72.6827 38.3052C73.2733 37.9495 73.8371 37.5401 74.374 37.077C74.9109 36.6139 75.2599 36.285 75.421 36.0904C75.5821 35.8957 75.7029 35.7447 75.7834 35.6373L73.1055 32.9594L72.4814 33.7245C72.0787 34.2212 71.4176 34.7313 70.4981 35.2548C69.5786 35.7783 68.5954 36.04 67.5484 36.04C65.8705 36.04 64.4174 35.4024 63.1892 34.1272C61.961 32.852 61.3469 31.2916 61.3469 29.4459C61.3469 27.6002 61.961 26.0397 63.1892 24.7645C64.4174 23.4893 65.8705 22.8517 67.5484 22.8517C68.5954 22.8517 69.5786 23.1202 70.4981 23.6571C71.4176 24.1941 72.0149 24.6203 72.2901 24.9357C72.5653 25.2512 72.77 25.5163 72.9042 25.731L75.5821 23.0531L74.7163 22.1068C74.1391 21.449 73.1861 20.788 71.8572 20.1235C70.5283 19.4591 69.0921 19.1268 67.5484 19.1268C64.7698 19.1268 62.357 20.1537 60.31 22.2075ZM85.3193 36.04C86.9971 36.04 88.3093 35.54 89.2556 34.54C90.202 33.5399 90.6751 32.1137 90.6751 30.2613V29.8586L84.2723 30.8855C83.534 31.0197 82.9366 31.3218 82.4803 31.7916C82.0239 32.2614 81.7957 32.852 81.7957 33.5634C81.7957 34.2211 82.1145 34.7984 82.7521 35.295C83.3897 35.7917 84.2454 36.04 85.3193 36.04ZM107.943 39.483C108.641 39.6575 109.359 39.7448 110.097 39.7448C112.715 39.7448 114.986 38.7414 116.913 36.7346C118.839 34.7279 119.802 32.2949 119.802 29.4358C119.802 26.5766 118.839 24.1437 116.913 22.1369C114.986 20.1301 112.715 19.1268 110.097 19.1268C108.943 19.1268 107.808 19.3751 106.694 19.8718C105.58 20.3684 104.852 20.7711 104.51 21.0798C104.167 21.3886 103.902 21.6369 103.714 21.8248V19.5496H99.5867V48H103.714V37.0668L103.996 37.3689C104.171 37.5299 104.449 37.7481 104.832 38.0232C105.214 38.2984 105.654 38.5669 106.151 38.8286C106.647 39.0904 107.245 39.3085 107.943 39.483ZM109.694 22.8517C108.124 22.8517 106.734 23.496 105.526 24.7846C104.318 26.0733 103.714 27.627 103.714 29.4458C103.714 31.2647 104.318 32.8184 105.526 34.107C106.734 35.3957 108.124 36.04 109.694 36.04C111.265 36.04 112.654 35.3957 113.862 34.107C115.07 32.8184 115.674 31.2647 115.674 29.4458C115.674 27.627 115.07 26.0733 113.862 24.7846C112.654 23.496 111.265 22.8517 109.694 22.8517ZM152.041 39.3421L152.041 37.2883L151.78 37.5501C151.659 37.6709 151.407 37.8689 151.025 38.144C150.642 38.4192 150.229 38.6676 149.786 38.889C149.343 39.1105 148.786 39.3085 148.115 39.483C147.444 39.6575 146.759 39.7448 146.061 39.7448C143.672 39.7448 141.736 38.9629 140.252 37.3991C138.769 35.8353 138.027 33.7312 138.027 31.0868V19.5496H142.155V31.0868C142.155 32.5097 142.608 33.6909 143.514 34.6305C144.42 35.5702 145.544 36.04 146.887 36.04C148.457 36.04 149.709 35.5332 150.642 34.5198C151.575 33.5064 152.041 32.0869 152.041 30.2613V19.5496L156.169 19.5496V39.3421H152.041ZM170.457 22.8517C171.141 22.8517 171.759 22.9188 172.309 23.053V19.1268H171.282C170.598 19.1268 169.916 19.2174 169.238 19.3986C168.561 19.5798 168.004 19.7811 167.567 20.0026C167.131 20.2241 166.718 20.4724 166.329 20.7476C165.94 21.0228 165.685 21.2208 165.564 21.3416L165.302 21.6033V19.5496H161.174V39.3421H165.302V28.6304C165.302 26.8048 165.769 25.3853 166.701 24.3719C167.634 23.3584 168.886 22.8517 170.457 22.8517ZM192.959 30.8855L177.495 30.8855C177.71 32.2815 178.398 33.4895 179.559 34.5097C180.72 35.5299 182.1 36.04 183.697 36.04C184.851 36.04 185.929 35.7782 186.929 35.2547C187.929 34.7312 188.637 34.2211 189.053 33.7245L189.677 32.9593L192.355 35.6373C192.274 35.7446 192.15 35.8957 191.982 36.0903C191.815 36.2849 191.456 36.6138 190.905 37.0769C190.355 37.54 189.771 37.9494 189.154 38.3051C188.536 38.6608 187.734 38.9897 186.747 39.2917C185.761 39.5938 184.744 39.7448 183.697 39.7448C180.892 39.7448 178.472 38.7145 176.438 36.6541C174.405 34.5936 173.388 32.1204 173.388 29.2344C173.388 26.4558 174.378 24.0766 176.358 22.0966C178.338 20.1167 180.714 19.1268 183.486 19.1268C186.257 19.1268 188.566 20.0496 190.412 21.8953C192.258 23.741 193.181 26.0531 193.181 28.8317L192.959 30.8855ZM179.72 23.9692C180.734 23.0899 181.985 22.6503 183.475 22.6503C184.992 22.6503 186.254 23.0899 187.261 23.9692C188.267 24.8484 188.892 25.986 189.133 27.382H177.677C178.026 25.986 178.707 24.8484 179.72 23.9692Z" fill="#00A1B7"/>
</svg>
