<svg width="16" height="16" viewBox="0 0 16 16" fill="none" xmlns="http://www.w3.org/2000/svg">
<path d="M11.1998 1.31567e-06C11.1946 1.31009e-06 11.1894 8.3338e-06 11.1841 2.49722e-05C10.0466 0.00365434 9.00229 0.402959 8.1815 1.06752C8.0759 1.15302 7.92369 1.15302 7.81809 1.06752C6.99355 0.399912 5.94337 0 4.7998 0C2.13312 0 -0.000208333 2.13333 6.91197e-06 4.8C6.91197e-06 4.8 -8.63996e-06 9.55162 6.91197e-06 11.2C3.20712e-05 13.8667 2.15981 16 4.79981 16H9.33314C9.47643 16 9.5998 15.8797 9.60001 15.7333L9.59994 14.8487C9.59988 14.1105 9.59981 13.164 9.5998 13.0667C9.5998 12.9207 9.48034 12.8 9.33314 12.8C8.90647 12.8009 5.22668 12.805 4.80001 12.805C3.91636 12.805 3.20001 12.085 3.20001 11.205V4.8C3.20001 3.94667 3.89335 3.2 4.8 3.2C5.70666 3.2 6.4 3.94667 6.4 4.8V9.33333C6.4 9.46666 6.50647 9.6 6.66647 9.6H9.33314C9.48825 9.59999 9.5998 9.47104 9.60001 9.33333V4.8C9.60001 3.93332 10.2933 3.2 11.2 3.2C12.1333 3.2 12.8 3.97334 12.8 4.8C12.8 4.91252 12.7999 10.2618 12.7998 13.4349L12.7998 15.7333C12.7998 15.8667 12.9065 16 13.0665 16H15.7331C15.8665 16 15.9998 15.8879 16 15.7333C15.9998 15.6965 16 4.8 16 4.8C16 2.13333 13.8665 1.31567e-06 11.1998 1.31567e-06Z" fill="#858794"/>
</svg>
