<svg width="20" height="20" viewBox="0 0 20 20" fill="none" xmlns="http://www.w3.org/2000/svg">
<path fill-rule="evenodd" clip-rule="evenodd" d="M2.05773 4.19162C2.07155 4.16275 2.08608 4.13429 2.1013 4.10626C2.17115 3.97768 2.2556 3.85819 2.35243 3.75C2.40066 3.69612 2.45195 3.64505 2.50603 3.59706C2.83702 3.30336 3.27268 3.125 3.75 3.125H16.25C16.9961 3.125 17.6404 3.56074 17.9423 4.19161C18.0594 4.43638 18.125 4.71053 18.125 5V15C18.125 16.0355 17.2855 16.875 16.25 16.875H3.75C2.71447 16.875 1.875 16.0355 1.875 15V5C1.875 4.71053 1.94059 4.43639 2.05773 4.19162ZM16.875 5.25888L10.4419 11.6919C10.1979 11.936 9.80214 11.936 9.55806 11.6919L3.125 5.25888V15C3.125 15.3452 3.40482 15.625 3.75 15.625H16.25C16.5952 15.625 16.875 15.3452 16.875 15V5.25888ZM4.00888 4.375L10 10.3661L15.9911 4.375H4.00888Z" fill="#9B9CA7"/>
</svg>
