<svg width="21" height="20" viewBox="0 0 21 20" fill="none" xmlns="http://www.w3.org/2000/svg">
<path d="M15.8661 3.75H12.375V2.5H18V8.125H16.75V4.63389L9.69194 11.692L8.80806 10.8081L15.8661 3.75Z" fill="white"/>
<path d="M11.125 5.625H4.875C4.52982 5.625 4.25 5.90482 4.25 6.25V15.625C4.25 15.9702 4.52982 16.25 4.875 16.25H14.25C14.5952 16.25 14.875 15.9702 14.875 15.625V9.375H16.125V15.625C16.125 16.6605 15.2855 17.5 14.25 17.5H4.875C3.83947 17.5 3 16.6605 3 15.625V6.25C3 5.21447 3.83947 4.375 4.875 4.375H11.125V5.625Z" fill="white"/>
</svg>
