<svg width="14" height="18" viewBox="0 0 14 18" fill="none" xmlns="http://www.w3.org/2000/svg">
<path d="M5.75 10.875V12.125H6.375V14H7.625V12.125H8.25V10.875H5.75Z" fill="#9B9CA7"/>
<path fill-rule="evenodd" clip-rule="evenodd" d="M2.625 7.75V2.75C2.625 1.71447 3.46447 0.875 4.5 0.875H9.5C10.5355 0.875 11.375 1.71447 11.375 2.75V7.75H12C13.0355 7.75 13.875 8.58947 13.875 9.625V15.25C13.875 16.2855 13.0355 17.125 12 17.125H2C0.964466 17.125 0.125 16.2855 0.125 15.25V9.625C0.125 8.58947 0.964466 7.75 2 7.75H2.625ZM4.5 2.125H9.5C9.84518 2.125 10.125 2.40482 10.125 2.75V7.75H3.875V2.75C3.875 2.40482 4.15482 2.125 4.5 2.125ZM2 9C1.65482 9 1.375 9.27982 1.375 9.625V15.25C1.375 15.5952 1.65482 15.875 2 15.875H12C12.3452 15.875 12.625 15.5952 12.625 15.25V9.625C12.625 9.27982 12.3452 9 12 9H2Z" fill="#9B9CA7"/>
</svg>
