<svg width="24" height="24" viewBox="0 0 24 24" fill="none" xmlns="http://www.w3.org/2000/svg">
<path d="M16.7997 1.97351e-06C16.7919 1.96513e-06 16.784 1.25007e-05 16.7762 3.74583e-05C15.07 0.00548151 13.5034 0.604438 12.2723 1.60127C12.1138 1.72953 11.8855 1.72953 11.7271 1.60127C10.4903 0.599868 8.91506 0 7.19971 0C3.19969 0 -0.0003125 3.2 1.0368e-05 7.2C1.0368e-05 7.2 -1.29599e-05 14.3274 1.0368e-05 16.8C4.81067e-05 20.8 3.23971 24 7.19971 24H13.9997C14.2146 24 14.3997 23.8195 14.4 23.6L14.3999 22.273C14.3998 21.1657 14.3997 19.746 14.3997 19.6C14.3997 19.381 14.2205 19.2 13.9997 19.2C13.3597 19.2014 7.84002 19.2074 7.20002 19.2074C5.87453 19.2074 4.80001 18.1274 4.80001 16.8074V7.2C4.80001 5.92 5.84002 4.8 7.20001 4.8C8.56 4.8 9.60001 5.92 9.60001 7.2V14C9.60001 14.2 9.75971 14.4 9.99971 14.4H13.9997C14.2324 14.4 14.3997 14.2066 14.4 14V7.2C14.4 5.89999 15.44 4.8 16.8 4.8C18.2 4.8 19.2 5.96 19.2 7.2C19.2 7.36878 19.1999 15.3926 19.1998 20.1524L19.1997 23.6C19.1997 23.8 19.3597 24 19.5997 24H23.5997C23.7997 24 23.9997 23.8319 24 23.6C23.9997 23.5447 24 7.2 24 7.2C24 3.2 20.7997 1.97351e-06 16.7997 1.97351e-06Z" fill="#0093FF"/>
</svg>
